<?xml version="1.0" encoding="UTF-8" standalone="no"?>
<svg
   version="1.0"
   width="99.999969"
   height="72.688599"
   viewBox="0 0 74.999979 54.516448"
   preserveAspectRatio="xMidYMid"
   id="svg1"
   xmlns="http://www.w3.org/2000/svg"
   xmlns:svg="http://www.w3.org/2000/svg">
  <defs
     id="defs1" />
  <metadata
     id="metadata1">&#10;Created by potrace 1.10, written by Peter Selinger 2001-2011&#10;</metadata>
  <g
     transform="matrix(0.12873299,0,0,-0.12873299,-329.1084,262.30593)"
     fill="#241f31"
     stroke="none"
     id="g1">
    <path
       d="m 2679.8076,4087.7329 c -654.55,-118.75 -1155.2,-492.1 -1437.35,-1072.5499 -48.45,-97.85 -87.4,-190.0001 -87.4,-204.2501 0,-13.3 -49.4,-56.0499 -109.25,-94.05 C -173.04241,1944.5327 -91.342409,1011.6328 1212.0576,806.43285 l 156.75,-24.6999 106.4,-120.65 c 1066.85,-1215.05004 3137.8499,-722.949984 3541.5999,841.69995 l 42.7501,164.35 133,98.8 c 1081.1,804.65 845.4999,1593.1501 -537.7001,1798.35 l -268.8499,38.9501 -122.55,94.0499 c -445.5501,337.25 -1052.6,486.4 -1583.65,390.45 z m 665,-378.1 c 775.1999,-149.15 1342.35,-827.4499 1348.05,-1614.05 0.95,-151.0502 -5.7,-212.8001 -24.7,-230.85 -76.9501,-75.05 -731.5,-380.0001 -962.35,-447.45 -104.5,-31.3501 -101.65,-40.85 18.9999,-75.05 142.5001,-40.85 144.4,-86.45 11.4,-222.3001 l -101.6499,-102.6 228,78.85 c 125.4,43.6999 342.95,133.9501 482.6,200.45 140.5999,67.4501 257.4499,119.7001 260.3,116.85 13.3,-13.2999 -152.9501,-335.35 -227.05,-438.89985 -540.55,-756.2 -1645.4,-905.349984 -2376.9,-321.1 l -114,90.2499 247,14.2501 c 134.9,7.6 340.1,26.6 455.05,40.85 114.95,15.1999 210.9,24.6999 212.8,22.7998 2.85,-1.8999 19.95,-75.0499 38,-162.4498 55.1,-254.6 41.8,-258.4 471.1999,170.0499 204.25,204.24995 368.6001,382.85005 365.7501,398.04995 -7.6,40.85 -54.15,59.85 -531.05,215.65 -549.1,180.5 -532,190.0001 -421.8001,-226.1 15.2001,-57.9501 -576.6499,-117.8001 -906.2999,-92.15 l -171.95,13.3 -55.1,88.3501 c -746.70002,1182.75 360.0501,2749.3 1753.7,2483.3 z m 1548.4999,-533.9 c 614.6501,-145.35 735.3001,-486.4 332.5,-938.5999 -128.25,-145.3501 -130.15,-144.4001 -146.3,20.8999 -23.75,239.4001 -96.8999,484.5001 -216.5999,722.9501 -61.7501,122.55 -107.35,223.2499 -100.7,223.2499 6.65,0 65.55,-13.2999 131.0999,-28.5 z m -3789.5499,-1590.3 c 27.55,-100.7001 76,-241.3001 107.35,-311.6001 70.3,-154.85 76,-148.2 -92.15,-101.65 -647.90002,179.5501 -732.45001,574.7501 -216.59998,1009.8501 l 129.19998,108.3 11.4,-260.3001 c 8.55,-191.9 24.7,-308.75 60.8,-444.5999 z"
       id="path1"
       style="fill:#80e08b;fill-opacity:1;stroke-width:0.95" />
  </g>
</svg>
